<mxfile host="Electron" modified="2024-05-25T11:08:28.756Z" agent="Mozilla/5.0 (Windows NT 10.0; Win64; x64) AppleWebKit/537.36 (KHTML, like Gecko) draw.io/24.4.8 Chrome/124.0.6367.207 Electron/30.0.6 Safari/537.36" etag="j3N7RfHIgpRYqWkZcPIs" version="24.4.8" type="device">
  <diagram name="第 1 页" id="tr266JfwDst_PnRiNIE3">
    <mxGraphModel dx="1102" dy="810" grid="1" gridSize="10" guides="1" tooltips="1" connect="1" arrows="1" fold="1" page="1" pageScale="1" pageWidth="3300" pageHeight="4681" math="0" shadow="0">
      <root>
        <mxCell id="0" />
        <mxCell id="1" parent="0" />
        <mxCell id="sRfE5GBA3tL96DVJPCX4-1" value="" style="rounded=0;whiteSpace=wrap;html=1;" parent="1" vertex="1">
          <mxGeometry x="220" y="130" width="400" height="80" as="geometry" />
        </mxCell>
        <mxCell id="sRfE5GBA3tL96DVJPCX4-2" value="" style="rounded=0;whiteSpace=wrap;html=1;" parent="1" vertex="1">
          <mxGeometry x="220" y="130" width="40" height="80" as="geometry" />
        </mxCell>
        <mxCell id="sRfE5GBA3tL96DVJPCX4-3" value="" style="rounded=0;whiteSpace=wrap;html=1;" parent="1" vertex="1">
          <mxGeometry x="300" y="130" width="40" height="80" as="geometry" />
        </mxCell>
        <mxCell id="sRfE5GBA3tL96DVJPCX4-4" value="" style="rounded=0;whiteSpace=wrap;html=1;" parent="1" vertex="1">
          <mxGeometry x="380" y="130" width="40" height="80" as="geometry" />
        </mxCell>
        <mxCell id="sRfE5GBA3tL96DVJPCX4-5" value="" style="rounded=0;whiteSpace=wrap;html=1;" parent="1" vertex="1">
          <mxGeometry x="460" y="130" width="40" height="80" as="geometry" />
        </mxCell>
        <mxCell id="sRfE5GBA3tL96DVJPCX4-6" value="" style="rounded=0;whiteSpace=wrap;html=1;" parent="1" vertex="1">
          <mxGeometry x="540" y="130" width="40" height="80" as="geometry" />
        </mxCell>
        <mxCell id="sRfE5GBA3tL96DVJPCX4-9" value="" style="rounded=0;whiteSpace=wrap;html=1;" parent="1" vertex="1">
          <mxGeometry x="220" y="240" width="400" height="80" as="geometry" />
        </mxCell>
        <mxCell id="sRfE5GBA3tL96DVJPCX4-10" value="" style="rounded=0;whiteSpace=wrap;html=1;" parent="1" vertex="1">
          <mxGeometry x="220" y="240" width="40" height="80" as="geometry" />
        </mxCell>
        <mxCell id="sRfE5GBA3tL96DVJPCX4-11" value="" style="rounded=0;whiteSpace=wrap;html=1;" parent="1" vertex="1">
          <mxGeometry x="300" y="240" width="40" height="80" as="geometry" />
        </mxCell>
        <mxCell id="sRfE5GBA3tL96DVJPCX4-12" value="" style="rounded=0;whiteSpace=wrap;html=1;" parent="1" vertex="1">
          <mxGeometry x="380" y="240" width="40" height="80" as="geometry" />
        </mxCell>
        <mxCell id="sRfE5GBA3tL96DVJPCX4-13" value="" style="rounded=0;whiteSpace=wrap;html=1;" parent="1" vertex="1">
          <mxGeometry x="460" y="240" width="40" height="80" as="geometry" />
        </mxCell>
        <mxCell id="sRfE5GBA3tL96DVJPCX4-14" value="" style="rounded=0;whiteSpace=wrap;html=1;" parent="1" vertex="1">
          <mxGeometry x="540" y="240" width="40" height="80" as="geometry" />
        </mxCell>
        <mxCell id="sRfE5GBA3tL96DVJPCX4-15" value="&lt;font style=&quot;font-size: 24px;&quot;&gt;q1&lt;/font&gt;" style="text;html=1;align=center;verticalAlign=middle;resizable=0;points=[];autosize=1;strokeColor=none;fillColor=none;" parent="1" vertex="1">
          <mxGeometry x="115" y="140" width="50" height="40" as="geometry" />
        </mxCell>
        <mxCell id="sRfE5GBA3tL96DVJPCX4-16" value="&lt;font style=&quot;font-size: 24px;&quot;&gt;q2&lt;/font&gt;" style="text;html=1;align=center;verticalAlign=middle;resizable=0;points=[];autosize=1;strokeColor=none;fillColor=none;" parent="1" vertex="1">
          <mxGeometry x="115" y="260" width="50" height="40" as="geometry" />
        </mxCell>
        <mxCell id="sRfE5GBA3tL96DVJPCX4-17" value="&lt;font style=&quot;font-size: 24px;&quot;&gt;1&lt;/font&gt;" style="text;html=1;align=center;verticalAlign=middle;resizable=0;points=[];autosize=1;strokeColor=none;fillColor=none;" parent="1" vertex="1">
          <mxGeometry x="580" y="150" width="40" height="40" as="geometry" />
        </mxCell>
        <mxCell id="sRfE5GBA3tL96DVJPCX4-18" value="&lt;font style=&quot;font-size: 18px;&quot;&gt;右：队头&lt;/font&gt;" style="text;html=1;align=center;verticalAlign=middle;resizable=0;points=[];autosize=1;strokeColor=none;fillColor=none;" parent="1" vertex="1">
          <mxGeometry x="600" y="90" width="100" height="40" as="geometry" />
        </mxCell>
        <mxCell id="sRfE5GBA3tL96DVJPCX4-19" value="&lt;font style=&quot;font-size: 18px;&quot;&gt;左：队尾&lt;/font&gt;" style="text;html=1;align=center;verticalAlign=middle;resizable=0;points=[];autosize=1;strokeColor=none;fillColor=none;" parent="1" vertex="1">
          <mxGeometry x="140" y="90" width="100" height="40" as="geometry" />
        </mxCell>
        <mxCell id="sRfE5GBA3tL96DVJPCX4-20" value="&lt;font style=&quot;font-size: 24px;&quot;&gt;2&lt;/font&gt;" style="text;html=1;align=center;verticalAlign=middle;resizable=0;points=[];autosize=1;strokeColor=none;fillColor=none;" parent="1" vertex="1">
          <mxGeometry x="540" y="150" width="40" height="40" as="geometry" />
        </mxCell>
        <mxCell id="sRfE5GBA3tL96DVJPCX4-21" value="&lt;font style=&quot;font-size: 24px;&quot;&gt;3&lt;/font&gt;" style="text;html=1;align=center;verticalAlign=middle;resizable=0;points=[];autosize=1;strokeColor=none;fillColor=none;" parent="1" vertex="1">
          <mxGeometry x="500" y="150" width="40" height="40" as="geometry" />
        </mxCell>
        <mxCell id="sRfE5GBA3tL96DVJPCX4-22" value="&lt;font style=&quot;font-size: 24px;&quot;&gt;4&lt;/font&gt;" style="text;html=1;align=center;verticalAlign=middle;resizable=0;points=[];autosize=1;strokeColor=none;fillColor=none;" parent="1" vertex="1">
          <mxGeometry x="460" y="150" width="40" height="40" as="geometry" />
        </mxCell>
        <mxCell id="ISVN9FL7Q3ZEPOrMpn_P-1" value="" style="rounded=0;whiteSpace=wrap;html=1;" parent="1" vertex="1">
          <mxGeometry x="270" y="490" width="490" height="70" as="geometry" />
        </mxCell>
        <mxCell id="ISVN9FL7Q3ZEPOrMpn_P-2" value="" style="rounded=0;whiteSpace=wrap;html=1;" parent="1" vertex="1">
          <mxGeometry x="340" y="490" width="70" height="70" as="geometry" />
        </mxCell>
        <mxCell id="ISVN9FL7Q3ZEPOrMpn_P-3" value="" style="rounded=0;whiteSpace=wrap;html=1;" parent="1" vertex="1">
          <mxGeometry x="480" y="490" width="70" height="70" as="geometry" />
        </mxCell>
        <mxCell id="ISVN9FL7Q3ZEPOrMpn_P-4" value="" style="rounded=0;whiteSpace=wrap;html=1;" parent="1" vertex="1">
          <mxGeometry x="620" y="490" width="70" height="70" as="geometry" />
        </mxCell>
        <mxCell id="ISVN9FL7Q3ZEPOrMpn_P-5" value="&lt;font style=&quot;font-size: 18px;&quot;&gt;head&lt;/font&gt;" style="text;html=1;align=center;verticalAlign=middle;resizable=0;points=[];autosize=1;strokeColor=none;fillColor=none;" parent="1" vertex="1">
          <mxGeometry x="410" y="570" width="60" height="40" as="geometry" />
        </mxCell>
        <mxCell id="ISVN9FL7Q3ZEPOrMpn_P-6" value="&lt;font style=&quot;font-size: 18px;&quot;&gt;tail&lt;/font&gt;" style="text;html=1;align=center;verticalAlign=middle;resizable=0;points=[];autosize=1;strokeColor=none;fillColor=none;" parent="1" vertex="1">
          <mxGeometry x="345" y="570" width="50" height="40" as="geometry" />
        </mxCell>
        <mxCell id="ISVN9FL7Q3ZEPOrMpn_P-7" value="&lt;font style=&quot;font-size: 24px;&quot;&gt;2&lt;/font&gt;" style="text;html=1;align=center;verticalAlign=middle;resizable=0;points=[];autosize=1;strokeColor=none;fillColor=none;" parent="1" vertex="1">
          <mxGeometry x="495" y="505" width="40" height="40" as="geometry" />
        </mxCell>
        <mxCell id="ISVN9FL7Q3ZEPOrMpn_P-8" value="&lt;font style=&quot;font-size: 24px;&quot;&gt;1&lt;/font&gt;" style="text;html=1;align=center;verticalAlign=middle;resizable=0;points=[];autosize=1;strokeColor=none;fillColor=none;" parent="1" vertex="1">
          <mxGeometry x="420" y="505" width="40" height="40" as="geometry" />
        </mxCell>
        <mxCell id="ISVN9FL7Q3ZEPOrMpn_P-9" value="&lt;font style=&quot;font-size: 24px;&quot;&gt;3&lt;/font&gt;" style="text;html=1;align=center;verticalAlign=middle;resizable=0;points=[];autosize=1;strokeColor=none;fillColor=none;" parent="1" vertex="1">
          <mxGeometry x="560" y="505" width="40" height="40" as="geometry" />
        </mxCell>
        <mxCell id="ISVN9FL7Q3ZEPOrMpn_P-10" value="&lt;font style=&quot;font-size: 24px;&quot;&gt;4&lt;/font&gt;" style="text;html=1;align=center;verticalAlign=middle;resizable=0;points=[];autosize=1;strokeColor=none;fillColor=none;" parent="1" vertex="1">
          <mxGeometry x="635" y="505" width="40" height="40" as="geometry" />
        </mxCell>
        <mxCell id="ISVN9FL7Q3ZEPOrMpn_P-12" value="&lt;font style=&quot;font-size: 24px;&quot;&gt;5&lt;/font&gt;" style="text;html=1;align=center;verticalAlign=middle;resizable=0;points=[];autosize=1;strokeColor=none;fillColor=none;" parent="1" vertex="1">
          <mxGeometry x="700" y="505" width="40" height="40" as="geometry" />
        </mxCell>
        <mxCell id="ISVN9FL7Q3ZEPOrMpn_P-13" value="&lt;font style=&quot;font-size: 24px;&quot;&gt;6&lt;/font&gt;" style="text;html=1;align=center;verticalAlign=middle;resizable=0;points=[];autosize=1;strokeColor=none;fillColor=none;" parent="1" vertex="1">
          <mxGeometry x="290" y="505" width="40" height="40" as="geometry" />
        </mxCell>
        <mxCell id="ISVN9FL7Q3ZEPOrMpn_P-14" value="" style="rounded=0;whiteSpace=wrap;html=1;" parent="1" vertex="1">
          <mxGeometry x="270" y="660" width="490" height="70" as="geometry" />
        </mxCell>
        <mxCell id="ISVN9FL7Q3ZEPOrMpn_P-15" value="" style="rounded=0;whiteSpace=wrap;html=1;" parent="1" vertex="1">
          <mxGeometry x="340" y="660" width="70" height="70" as="geometry" />
        </mxCell>
        <mxCell id="ISVN9FL7Q3ZEPOrMpn_P-16" value="" style="rounded=0;whiteSpace=wrap;html=1;" parent="1" vertex="1">
          <mxGeometry x="480" y="660" width="70" height="70" as="geometry" />
        </mxCell>
        <mxCell id="ISVN9FL7Q3ZEPOrMpn_P-17" value="" style="rounded=0;whiteSpace=wrap;html=1;" parent="1" vertex="1">
          <mxGeometry x="620" y="660" width="70" height="70" as="geometry" />
        </mxCell>
        <mxCell id="ISVN9FL7Q3ZEPOrMpn_P-18" value="&lt;font style=&quot;font-size: 18px;&quot;&gt;head&lt;/font&gt;" style="text;html=1;align=center;verticalAlign=middle;resizable=0;points=[];autosize=1;strokeColor=none;fillColor=none;" parent="1" vertex="1">
          <mxGeometry x="410" y="740" width="60" height="40" as="geometry" />
        </mxCell>
        <mxCell id="ISVN9FL7Q3ZEPOrMpn_P-19" value="&lt;font style=&quot;font-size: 18px;&quot;&gt;tail&lt;/font&gt;" style="text;html=1;align=center;verticalAlign=middle;resizable=0;points=[];autosize=1;strokeColor=none;fillColor=none;" parent="1" vertex="1">
          <mxGeometry x="410" y="770" width="50" height="40" as="geometry" />
        </mxCell>
        <mxCell id="NCoKEpA7gKQT3k9asyqP-1" value="&lt;font style=&quot;font-size: 24px;&quot;&gt;A&lt;/font&gt;" style="ellipse;whiteSpace=wrap;html=1;aspect=fixed;" parent="1" vertex="1">
          <mxGeometry x="1170" y="230" width="80" height="80" as="geometry" />
        </mxCell>
        <mxCell id="NCoKEpA7gKQT3k9asyqP-2" value="&lt;font style=&quot;font-size: 24px;&quot;&gt;B&lt;/font&gt;" style="ellipse;whiteSpace=wrap;html=1;aspect=fixed;" parent="1" vertex="1">
          <mxGeometry x="1030" y="340" width="80" height="80" as="geometry" />
        </mxCell>
        <mxCell id="NCoKEpA7gKQT3k9asyqP-3" value="&lt;font style=&quot;font-size: 24px;&quot;&gt;C&lt;/font&gt;" style="ellipse;whiteSpace=wrap;html=1;aspect=fixed;" parent="1" vertex="1">
          <mxGeometry x="1310" y="340" width="80" height="80" as="geometry" />
        </mxCell>
        <mxCell id="NCoKEpA7gKQT3k9asyqP-4" value="&lt;font style=&quot;font-size: 24px;&quot;&gt;D&lt;/font&gt;" style="ellipse;whiteSpace=wrap;html=1;aspect=fixed;" parent="1" vertex="1">
          <mxGeometry x="940" y="470" width="80" height="80" as="geometry" />
        </mxCell>
        <mxCell id="NCoKEpA7gKQT3k9asyqP-5" value="&lt;font style=&quot;font-size: 24px;&quot;&gt;E&lt;/font&gt;" style="ellipse;whiteSpace=wrap;html=1;aspect=fixed;" parent="1" vertex="1">
          <mxGeometry x="1110" y="470" width="80" height="80" as="geometry" />
        </mxCell>
        <mxCell id="NCoKEpA7gKQT3k9asyqP-6" value="&lt;font style=&quot;font-size: 24px;&quot;&gt;F&lt;/font&gt;" style="ellipse;whiteSpace=wrap;html=1;aspect=fixed;" parent="1" vertex="1">
          <mxGeometry x="1240" y="470" width="80" height="80" as="geometry" />
        </mxCell>
        <mxCell id="NCoKEpA7gKQT3k9asyqP-7" value="&lt;font style=&quot;font-size: 24px;&quot;&gt;G&lt;/font&gt;" style="ellipse;whiteSpace=wrap;html=1;aspect=fixed;" parent="1" vertex="1">
          <mxGeometry x="1400" y="470" width="80" height="80" as="geometry" />
        </mxCell>
        <mxCell id="NCoKEpA7gKQT3k9asyqP-8" value="&lt;font style=&quot;font-size: 24px;&quot;&gt;H&lt;/font&gt;" style="ellipse;whiteSpace=wrap;html=1;aspect=fixed;" parent="1" vertex="1">
          <mxGeometry x="1160" y="620" width="80" height="80" as="geometry" />
        </mxCell>
        <mxCell id="NCoKEpA7gKQT3k9asyqP-9" value="" style="endArrow=none;html=1;rounded=0;entryX=0;entryY=1;entryDx=0;entryDy=0;exitX=0.928;exitY=0.281;exitDx=0;exitDy=0;exitPerimeter=0;" parent="1" source="NCoKEpA7gKQT3k9asyqP-2" target="NCoKEpA7gKQT3k9asyqP-1" edge="1">
          <mxGeometry width="50" height="50" relative="1" as="geometry">
            <mxPoint x="1190" y="510" as="sourcePoint" />
            <mxPoint x="1240" y="460" as="targetPoint" />
          </mxGeometry>
        </mxCell>
        <mxCell id="NCoKEpA7gKQT3k9asyqP-10" value="" style="endArrow=none;html=1;rounded=0;entryX=0.254;entryY=0.927;entryDx=0;entryDy=0;entryPerimeter=0;" parent="1" source="NCoKEpA7gKQT3k9asyqP-4" target="NCoKEpA7gKQT3k9asyqP-2" edge="1">
          <mxGeometry width="50" height="50" relative="1" as="geometry">
            <mxPoint x="990" y="474" as="sourcePoint" />
            <mxPoint x="1074" y="420" as="targetPoint" />
          </mxGeometry>
        </mxCell>
        <mxCell id="NCoKEpA7gKQT3k9asyqP-11" value="" style="endArrow=none;html=1;rounded=0;entryX=1;entryY=1;entryDx=0;entryDy=0;exitX=0;exitY=0;exitDx=0;exitDy=0;" parent="1" source="NCoKEpA7gKQT3k9asyqP-5" target="NCoKEpA7gKQT3k9asyqP-2" edge="1">
          <mxGeometry width="50" height="50" relative="1" as="geometry">
            <mxPoint x="1118" y="372" as="sourcePoint" />
            <mxPoint x="1202" y="318" as="targetPoint" />
          </mxGeometry>
        </mxCell>
        <mxCell id="NCoKEpA7gKQT3k9asyqP-12" value="" style="endArrow=none;html=1;rounded=0;entryX=1;entryY=1;entryDx=0;entryDy=0;exitX=0;exitY=0;exitDx=0;exitDy=0;" parent="1" source="NCoKEpA7gKQT3k9asyqP-3" target="NCoKEpA7gKQT3k9asyqP-1" edge="1">
          <mxGeometry width="50" height="50" relative="1" as="geometry">
            <mxPoint x="1128" y="382" as="sourcePoint" />
            <mxPoint x="1212" y="328" as="targetPoint" />
          </mxGeometry>
        </mxCell>
        <mxCell id="NCoKEpA7gKQT3k9asyqP-13" value="" style="endArrow=none;html=1;rounded=0;entryX=0;entryY=1;entryDx=0;entryDy=0;exitX=0.5;exitY=0;exitDx=0;exitDy=0;" parent="1" source="NCoKEpA7gKQT3k9asyqP-6" target="NCoKEpA7gKQT3k9asyqP-3" edge="1">
          <mxGeometry width="50" height="50" relative="1" as="geometry">
            <mxPoint x="1138" y="392" as="sourcePoint" />
            <mxPoint x="1222" y="338" as="targetPoint" />
          </mxGeometry>
        </mxCell>
        <mxCell id="NCoKEpA7gKQT3k9asyqP-14" value="" style="endArrow=none;html=1;rounded=0;entryX=1;entryY=1;entryDx=0;entryDy=0;" parent="1" source="NCoKEpA7gKQT3k9asyqP-7" target="NCoKEpA7gKQT3k9asyqP-3" edge="1">
          <mxGeometry width="50" height="50" relative="1" as="geometry">
            <mxPoint x="1148" y="402" as="sourcePoint" />
            <mxPoint x="1232" y="348" as="targetPoint" />
          </mxGeometry>
        </mxCell>
        <mxCell id="NCoKEpA7gKQT3k9asyqP-15" value="" style="endArrow=none;html=1;rounded=0;entryX=0.671;entryY=0.983;entryDx=0;entryDy=0;exitX=0.296;exitY=0.059;exitDx=0;exitDy=0;exitPerimeter=0;entryPerimeter=0;" parent="1" source="NCoKEpA7gKQT3k9asyqP-8" target="NCoKEpA7gKQT3k9asyqP-5" edge="1">
          <mxGeometry width="50" height="50" relative="1" as="geometry">
            <mxPoint x="1158" y="412" as="sourcePoint" />
            <mxPoint x="1242" y="358" as="targetPoint" />
          </mxGeometry>
        </mxCell>
        <mxCell id="1oSm4DqgVBjOEWZ2U074-1" value="&lt;font style=&quot;font-size: 24px;&quot;&gt;#&lt;/font&gt;&lt;span style=&quot;color: rgba(0, 0, 0, 0); font-family: monospace; font-size: 0px; text-align: start; text-wrap: nowrap;&quot;&gt;%3CmxGraphModel%3E%3Croot%3E%3CmxCell%20id%3D%220%22%2F%3E%3CmxCell%20id%3D%221%22%20parent%3D%220%22%2F%3E%3CmxCell%20id%3D%222%22%20value%3D%22%26lt%3Bfont%20style%3D%26quot%3Bfont-size%3A%2024px%3B%26quot%3B%26gt%3BH%26lt%3B%2Ffont%26gt%3B%22%20style%3D%22ellipse%3BwhiteSpace%3Dwrap%3Bhtml%3D1%3Baspect%3Dfixed%3B%22%20vertex%3D%221%22%20parent%3D%221%22%3E%3CmxGeometry%20x%3D%221160%22%20y%3D%22620%22%20width%3D%2280%22%20height%3D%2280%22%20as%3D%22geometry%22%2F%3E%3C%2FmxCell%3E%3C%2Froot%3E%3C%2FmxGraphModel%3E&lt;/span&gt;" style="ellipse;whiteSpace=wrap;html=1;aspect=fixed;" vertex="1" parent="1">
          <mxGeometry x="1060" y="620" width="80" height="80" as="geometry" />
        </mxCell>
        <mxCell id="1oSm4DqgVBjOEWZ2U074-2" value="&lt;font style=&quot;font-size: 24px;&quot;&gt;#&lt;/font&gt;&lt;span style=&quot;color: rgba(0, 0, 0, 0); font-family: monospace; font-size: 0px; text-align: start; text-wrap: nowrap;&quot;&gt;%3CmxGraphModel%3E%3Croot%3E%3CmxCell%20id%3D%220%22%2F%3E%3CmxCell%20id%3D%221%22%20parent%3D%220%22%2F%3E%3CmxCell%20id%3D%222%22%20value%3D%22%26lt%3Bfont%20style%3D%26quot%3Bfont-size%3A%2024px%3B%26quot%3B%26gt%3BH%26lt%3B%2Ffont%26gt%3B%22%20style%3D%22ellipse%3BwhiteSpace%3Dwrap%3Bhtml%3D1%3Baspect%3Dfixed%3B%22%20vertex%3D%221%22%20parent%3D%221%22%3E%3CmxGeometry%20x%3D%221160%22%20y%3D%22620%22%20width%3D%2280%22%20height%3D%2280%22%20as%3D%22geometry%22%2F%3E%3C%2FmxCell%3E%3C%2Froot%3E%3C%2FmxGraphModel%3E&lt;/span&gt;" style="ellipse;whiteSpace=wrap;html=1;aspect=fixed;" vertex="1" parent="1">
          <mxGeometry x="840" y="620" width="80" height="80" as="geometry" />
        </mxCell>
        <mxCell id="1oSm4DqgVBjOEWZ2U074-3" value="&lt;font style=&quot;font-size: 24px;&quot;&gt;#&lt;/font&gt;&lt;span style=&quot;color: rgba(0, 0, 0, 0); font-family: monospace; font-size: 0px; text-align: start; text-wrap: nowrap;&quot;&gt;%3CmxGraphModel%3E%3Croot%3E%3CmxCell%20id%3D%220%22%2F%3E%3CmxCell%20id%3D%221%22%20parent%3D%220%22%2F%3E%3CmxCell%20id%3D%222%22%20value%3D%22%26lt%3Bfont%20style%3D%26quot%3Bfont-size%3A%2024px%3B%26quot%3B%26gt%3BH%26lt%3B%2Ffont%26gt%3B%22%20style%3D%22ellipse%3BwhiteSpace%3Dwrap%3Bhtml%3D1%3Baspect%3Dfixed%3B%22%20vertex%3D%221%22%20parent%3D%221%22%3E%3CmxGeometry%20x%3D%221160%22%20y%3D%22620%22%20width%3D%2280%22%20height%3D%2280%22%20as%3D%22geometry%22%2F%3E%3C%2FmxCell%3E%3C%2Froot%3E%3C%2FmxGraphModel%3E&lt;/span&gt;" style="ellipse;whiteSpace=wrap;html=1;aspect=fixed;" vertex="1" parent="1">
          <mxGeometry x="950" y="620" width="80" height="80" as="geometry" />
        </mxCell>
        <mxCell id="1oSm4DqgVBjOEWZ2U074-7" value="" style="endArrow=none;html=1;rounded=0;entryX=0.275;entryY=0.963;entryDx=0;entryDy=0;exitX=0.5;exitY=0;exitDx=0;exitDy=0;entryPerimeter=0;" edge="1" parent="1" source="1oSm4DqgVBjOEWZ2U074-1" target="NCoKEpA7gKQT3k9asyqP-5">
          <mxGeometry width="50" height="50" relative="1" as="geometry">
            <mxPoint x="1194" y="635" as="sourcePoint" />
            <mxPoint x="1174" y="559" as="targetPoint" />
          </mxGeometry>
        </mxCell>
        <mxCell id="1oSm4DqgVBjOEWZ2U074-8" value="" style="endArrow=none;html=1;rounded=0;entryX=0.65;entryY=1.004;entryDx=0;entryDy=0;entryPerimeter=0;" edge="1" parent="1" source="1oSm4DqgVBjOEWZ2U074-3" target="NCoKEpA7gKQT3k9asyqP-4">
          <mxGeometry width="50" height="50" relative="1" as="geometry">
            <mxPoint x="1204" y="645" as="sourcePoint" />
            <mxPoint x="1184" y="569" as="targetPoint" />
          </mxGeometry>
        </mxCell>
        <mxCell id="1oSm4DqgVBjOEWZ2U074-9" value="" style="endArrow=none;html=1;rounded=0;entryX=0;entryY=1;entryDx=0;entryDy=0;" edge="1" parent="1" source="1oSm4DqgVBjOEWZ2U074-2" target="NCoKEpA7gKQT3k9asyqP-4">
          <mxGeometry width="50" height="50" relative="1" as="geometry">
            <mxPoint x="1214" y="655" as="sourcePoint" />
            <mxPoint x="1194" y="579" as="targetPoint" />
          </mxGeometry>
        </mxCell>
        <mxCell id="1oSm4DqgVBjOEWZ2U074-10" value="" style="endArrow=classic;html=1;rounded=0;" edge="1" parent="1">
          <mxGeometry width="50" height="50" relative="1" as="geometry">
            <mxPoint x="1110" y="260" as="sourcePoint" />
            <mxPoint x="1320" y="260" as="targetPoint" />
          </mxGeometry>
        </mxCell>
        <mxCell id="1oSm4DqgVBjOEWZ2U074-11" value="" style="endArrow=classic;html=1;rounded=0;" edge="1" parent="1">
          <mxGeometry width="50" height="50" relative="1" as="geometry">
            <mxPoint x="980" y="380" as="sourcePoint" />
            <mxPoint x="1470" y="380" as="targetPoint" />
          </mxGeometry>
        </mxCell>
        <mxCell id="1oSm4DqgVBjOEWZ2U074-12" value="" style="endArrow=classic;html=1;rounded=0;" edge="1" parent="1">
          <mxGeometry width="50" height="50" relative="1" as="geometry">
            <mxPoint x="870" y="520" as="sourcePoint" />
            <mxPoint x="1540" y="520" as="targetPoint" />
          </mxGeometry>
        </mxCell>
        <mxCell id="1oSm4DqgVBjOEWZ2U074-13" value="" style="endArrow=classic;html=1;rounded=0;" edge="1" parent="1">
          <mxGeometry width="50" height="50" relative="1" as="geometry">
            <mxPoint x="810" y="670" as="sourcePoint" />
            <mxPoint x="1290" y="670" as="targetPoint" />
          </mxGeometry>
        </mxCell>
      </root>
    </mxGraphModel>
  </diagram>
</mxfile>
